# xmcd CD database file
#
# Track frame offsets:
#	150
#	14327
#	26510
#	42537
#	54592
#	67860
#	82895
#	97390
#	109015
#	124887
#	136967
#	152697
#	171045
#	187485
#
# Disc length: 2691 seconds
#
# Revision: 0
# Processed by: cddbd v1.5PL3 Copyright (c) Steve Scherf et al.
# Submitted via: CDex 1.51
#
DISCID=c00a810e
DTITLE=CODERA - QUIET PLACES
DYEAR=1987
DGENRE=New Age
TTITLE0=Seven Rainy Days
TTITLE1=Song For Suzanne
TTITLE2=Love Sequences
TTITLE3=Watching The Spring
TTITLE4=Back To School
TTITLE5=Daylight
TTITLE6=Venice Daybreak
TTITLE7=I Just Want To Stay
TTITLE8=Sunday Morning
TTITLE9=Samballad
TTITLE10=Nice Dream
TTITLE11=Loave Is A Flame
TTITLE12=Tesoro
TTITLE13=You Are So Amazing
EXTD=YEAR: 1987
EXTT0=
EXTT1=
EXTT2=
EXTT3=
EXTT4=
EXTT5=
EXTT6=
EXTT7=
EXTT8=
EXTT9=
EXTT10=
EXTT11=
EXTT12=
EXTT13=
PLAYORDER=
